<svg width="52" height="43" viewBox="0 0 52 43" fill="none" xmlns="http://www.w3.org/2000/svg">
<path fill-rule="evenodd" clip-rule="evenodd" d="M0.521484 0.785767H51.4793V42.8813H0.521484V0.785767ZM2.73704 3.00132V40.6658H49.2637V3.00132H2.73704Z" fill="#0056D2"/>
<path fill-rule="evenodd" clip-rule="evenodd" d="M31.3842 22.9856H33.5997V30.6352L36.347 29.2299L39.0943 30.6352V22.9856H41.3099V34.257L36.347 31.7185L31.3842 34.257V22.9856Z" fill="#0056D2"/>
<path fill-rule="evenodd" clip-rule="evenodd" d="M36.347 11.354C33.1289 11.354 30.5201 13.9628 30.5201 17.1809C30.5201 20.399 33.1289 23.0078 36.347 23.0078C39.5652 23.0078 42.1739 20.399 42.1739 17.1809C42.1739 13.9628 39.5652 11.354 36.347 11.354ZM28.3046 17.1809C28.3046 12.7392 31.9053 9.13841 36.347 9.13841C40.7888 9.13841 44.3895 12.7392 44.3895 17.1809C44.3895 21.6226 40.7888 25.2234 36.347 25.2234C31.9053 25.2234 28.3046 21.6226 28.3046 17.1809Z" fill="#0056D2"/>
</svg>
