<svg width="67" height="67" viewBox="0 0 67 67" fill="none" xmlns="http://www.w3.org/2000/svg">
<path fill-rule="evenodd" clip-rule="evenodd" d="M32.6685 6.74634L62.8994 21.8618L32.6685 36.9773L2.4375 21.8618L32.6685 6.74634ZM8.61763 21.8618L32.6685 33.8872L56.7193 21.8618L32.6685 9.8364L8.61763 21.8618Z" fill="#0056D2"/>
<path fill-rule="evenodd" clip-rule="evenodd" d="M17.7161 38.4448V28.6332H20.4799V38.4448C20.4799 40.3444 21.6224 42.2236 23.8207 43.6901C26.0114 45.1516 29.1281 46.1007 32.6685 46.1007C36.2088 46.1007 39.3255 45.1516 41.5162 43.6901C43.7145 42.2236 44.857 40.3444 44.857 38.4448V28.6332H47.6208V38.4448C47.6208 41.5478 45.7508 44.1875 43.0501 45.9893C40.3419 47.796 36.6733 48.8645 32.6685 48.8645C28.6636 48.8645 24.995 47.796 22.2868 45.9893C19.5862 44.1875 17.7161 41.5478 17.7161 38.4448Z" fill="#0056D2"/>
<path fill-rule="evenodd" clip-rule="evenodd" d="M31.4321 21.2444C31.7731 20.5616 32.6031 20.2845 33.2859 20.6255L57.4142 32.6758C57.8827 32.9098 58.1787 33.3885 58.1787 33.9122V41.4574C58.1787 42.2206 57.56 42.8393 56.7968 42.8393C56.0335 42.8393 55.4148 42.2206 55.4148 41.4574V34.7667L32.051 23.0981C31.3682 22.7571 31.0911 21.9272 31.4321 21.2444Z" fill="#0056D2"/>
<path fill-rule="evenodd" clip-rule="evenodd" d="M54.4132 40.2173C55.1605 39.8905 55.9673 39.7218 56.7829 39.7218C57.5985 39.7218 58.4053 39.8905 59.1526 40.2173C59.8999 40.5441 60.5715 41.0219 61.1253 41.6207C61.6791 42.2195 62.103 42.9263 62.3705 43.6968C62.6316 44.4492 62.7381 45.2464 62.6837 46.0405V59.4224H50.8821V46.0405C50.8278 45.2464 50.9342 44.4492 51.1954 43.6968C51.4629 42.9263 51.8868 42.2195 52.4406 41.6207C52.9943 41.0219 53.666 40.5441 54.4132 40.2173ZM56.7829 42.4857C56.3485 42.4857 55.9187 42.5755 55.5206 42.7496C55.1225 42.9237 54.7647 43.1782 54.4697 43.4972C54.1747 43.8162 53.9489 44.1927 53.8064 44.6032C53.6639 45.0136 53.6079 45.4491 53.6418 45.8823L53.646 45.9361V56.6585H59.9199V45.9361L59.9241 45.8823C59.958 45.4491 59.902 45.0136 59.7595 44.6032C59.617 44.1927 59.3912 43.8162 59.0962 43.4972C58.8012 43.1782 58.4434 42.9237 58.0453 42.7496C57.6472 42.5755 57.2174 42.4857 56.7829 42.4857Z" fill="#0056D2"/>
</svg>
