<svg width="50" height="51" viewBox="0 0 50 51" fill="none" xmlns="http://www.w3.org/2000/svg">
<path d="M19.1952 0.668213C19.9009 0.66826 20.4725 1.2408 20.4725 1.94653V2.41528H40.3456L40.4423 2.41919C40.9199 2.45523 41.3408 2.75679 41.5263 3.20435C41.7115 3.65198 41.6268 4.16244 41.3143 4.52563L41.2499 4.59692L36.9198 8.92603L41.2499 13.2561C41.6151 13.6216 41.724 14.1713 41.5263 14.6487C41.3284 15.126 40.8623 15.4377 40.3456 15.4377H22.496V12.8811H37.2606L34.2089 9.83032C33.7099 9.33133 33.71 8.52177 34.2089 8.02271L37.2606 4.97095H20.4725V18.2161L31.3632 37.7053L36.7909 26.8499L36.8837 26.6956C37.1199 26.3535 37.5112 26.1439 37.9345 26.1438C38.4183 26.1439 38.8615 26.4171 39.078 26.8499L49.8085 48.3118C50.0065 48.7079 49.9857 49.1792 49.7528 49.5559C49.5199 49.9325 49.1087 50.1614 48.6659 50.1614H36.1757C36.1662 50.1616 36.1568 50.1633 36.1473 50.1633H2.16492C1.71164 50.1633 1.29183 49.9224 1.06238 49.5315C0.833116 49.1407 0.827965 48.6576 1.04871 48.262L17.9169 18.0784V1.94653C17.9169 1.24077 18.4894 0.668213 19.1952 0.668213ZM4.34266 47.6067H26.413L29.9813 40.47L19.1552 21.0979L4.34266 47.6067ZM29.2714 47.6057H33.9686L31.4891 43.1682L29.2714 47.6057ZM32.871 40.4045L36.8954 47.6057H46.5985L37.9345 30.2795L32.871 40.4045Z" fill="#0056D2"/>
</svg>
